<svg width="40" height="38" viewBox="0 0 40 38" fill="none" xmlns="http://www.w3.org/2000/svg">
<path d="M20.0955 8.97219C18.003 11.5243 16.9117 14.6988 16.9994 18.0494L17.0206 18.8611L15.4762 18.4991L14.3489 17.3183C14.3903 15.3906 14.7656 13.5065 15.4674 11.7066C16.8096 8.26484 18.7623 6.4615 20.0955 5.12833L20.6254 7.27154L20.0955 8.97219Z" fill="white"/>
<path d="M16.1693 10.1461C15.9227 10.6262 15.6868 11.1442 15.4675 11.7067C14.8573 13.2714 14.4943 14.8999 14.3825 16.5653C15.5468 16.7985 16.4552 17.1412 16.998 17.3794C17.0454 15.103 17.6396 12.9231 18.7241 10.983C17.7627 10.4626 16.8474 10.2392 16.1693 10.1461Z" fill="white"/>
<path d="M9.99387 26.4681C13.3184 27.0107 16.6371 26.3063 19.4032 24.6111L20.0955 24.1868L20.6254 25.9242L20.0955 27.2716C17.6742 28.5993 14.9635 29.2975 12.2069 29.2976C9.77927 29.2978 8.17742 28.7964 6.66467 28.3911L8.22845 26.958L9.99387 26.4681Z" fill="white"/>
<path d="M12.8336 26.6332C13.4715 27.5295 13.8022 28.4687 13.9735 29.2016C16.114 28.9685 18.194 28.3143 20.0954 27.2717L20.13 27.1839C19.9292 26.1206 19.5339 25.285 19.2028 24.7309C17.2766 25.8675 15.0939 26.5296 12.8336 26.6332Z" fill="white"/>
<path d="M30.197 26.4682C29.0327 23.3793 26.8292 20.847 23.8839 19.2485L23.1703 18.8611L24.4677 17.582L25.842 17.3183C27.491 18.318 28.9354 19.5851 30.1433 21.0932C32.4526 23.9763 33.0373 26.5667 33.5262 28.3912L31.9268 27.9973L30.197 26.4682Z" fill="white"/>
<path d="M24.7174 19.7385C26.6037 20.9351 28.1396 22.5395 29.235 24.4358C30.1304 23.8315 30.757 23.1277 31.1767 22.5326C30.8762 22.0628 30.5351 21.5823 30.1434 21.0933C29.0855 19.7725 27.8463 18.6365 26.447 17.7032C25.8225 18.6083 25.1878 19.2897 24.7174 19.7385Z" fill="white"/>
<path d="M12.7325 37.6377C10.2371 37.6377 7.74171 36.099 5.92488 34.3589C-4.17481 24.2593 -0.622017 7.16291 12.5101 1.83765C25.5582 -3.45334 39.9041 6.13316 39.9041 20.2845C39.9041 30.3227 32.5432 37.6377 27.2673 37.6377C23.0159 37.6377 20.5118 33.2686 21.4406 28.8606C23.0978 20.9969 27.9009 21.1163 30.3744 14.3326C25.4414 13.3358 22.7456 14.7849 19.9996 16.4678C17.2572 14.7871 14.5765 13.332 9.62463 14.3326C12.0954 21.1087 16.9036 21.008 18.5585 28.8606C19.4888 33.276 16.9779 37.6375 12.7325 37.6377ZM7.77821 32.4653C13.7997 37.9734 16.7842 33.2904 15.9659 29.407C14.4216 22.0786 9.23907 22.7258 6.64847 13.7413L6.27446 12.444C10.089 11.4219 14.4327 10.2513 19.9996 13.3779C22.4499 12.0017 24.8049 11.3569 27.3518 11.3569C29.9025 11.3569 31.9857 11.9781 33.7246 12.444L33.3506 13.7413C30.7603 22.7245 25.5777 22.077 24.0332 29.407C23.2166 33.2818 26.1844 37.9871 32.2208 32.4653C38.9287 25.7361 38.9217 14.8046 32.2007 8.08339C25.4573 1.33998 14.5423 1.33946 7.79824 8.08339C1.07721 14.8046 1.07025 25.7362 7.77821 32.4653Z" fill="white"/>
<path d="M23.9984 30.8949C24.0078 30.5186 24.0512 30.1401 24.1293 29.7693C24.6187 27.4466 25.4736 25.9251 26.4953 24.6442C25.3618 24.4431 24.4254 24.1246 23.7637 23.8512C22.8336 25.1838 22.04 26.8349 21.5368 29.2229C21.4815 29.4852 21.4388 29.7473 21.4075 30.0083C22.3923 30.5626 23.3302 30.7972 23.9984 30.8949Z" fill="white"/>
<path d="M9.0307 19.242C10.4671 21.4305 12.0833 22.7196 13.4446 24.3381C14.1188 23.4905 14.7919 22.8561 15.3008 22.4313C13.8951 20.8363 12.3399 19.5453 11.0454 17.4499C10.1208 18.0129 9.46559 18.6859 9.0307 19.242Z" fill="white"/>
<path d="M27.4385 14.3687C27.3405 13.3624 27.0515 12.4184 26.7914 11.734C24.5804 11.8326 22.4982 12.4348 20.3503 13.5998C20.8516 14.7052 21.0128 15.6227 21.0496 16.2592C22.8691 15.2069 24.7817 14.3667 27.4385 14.3687Z" fill="white"/>
<path d="M6.66467 28.3912C7.11405 26.7141 7.68865 24.0383 10.0476 21.0932C11.2555 19.5851 12.6999 18.3179 14.3488 17.3183L17.0206 18.8611L16.307 19.2485C13.3617 20.847 11.1582 23.3793 9.99387 26.4682L6.66467 28.3912Z" fill="white"/>
<path d="M33.5263 28.3911L32.2468 28.734C28.0945 29.8466 23.7704 29.2867 20.0955 27.2716V24.1868L20.7877 24.6111C23.5526 26.3056 26.8705 27.011 30.1971 26.4681L33.5263 28.3911Z" fill="white"/>
<path d="M23.1703 18.8611L23.1916 18.0494C23.2793 14.6987 22.188 11.5242 20.0955 8.97219V5.12833L21.0322 6.06505C24.1461 9.17898 25.7542 13.2381 25.842 17.3182L23.1703 18.8611Z" fill="white"/>
</svg>
